<svg width="20.000000" height="20.000000" viewBox="0 0 20 20" fill="none" xmlns="http://www.w3.org/2000/svg" xmlns:xlink="http://www.w3.org/1999/xlink">
	<g clip-path="url(#clip39_5153)">
		<path id="Vector" d="M17.8125 16.0938C17.8125 17.8198 16.4141 19.2188 14.6875 19.2188L5.3125 19.2188C3.58594 19.2188 2.1875 17.8198 2.1875 16.0938L2.1875 3.90625C2.1875 2.18018 3.58594 0.78125 5.3125 0.78125L13.3926 0.78125C14.2227 0.78125 15.0176 1.11035 15.6035 1.69629L16.8965 2.99072C17.4824 3.57715 17.8125 4.37207 17.8125 5.20068L17.8125 5.46875L17.8125 16.0938ZM17.8125 5.46875L14.6875 5.46875C13.8242 5.46875 13.125 4.76904 13.125 3.90625L13.125 0.78125" stroke="currentColor" stroke-opacity="1.000000" stroke-width="1.500000" stroke-linejoin="round"/>
		<path id="Vector" d="M5.3125 14.5312L14.6875 14.5312" stroke="currentColor" stroke-opacity="1.000000" stroke-width="1.500000" stroke-linejoin="round" stroke-linecap="round"/>
		<path id="Vector" d="M6.875 11.7188L6.875 14.5312" stroke="currentColor" stroke-opacity="1.000000" stroke-width="1.500000" stroke-linejoin="round" stroke-linecap="round"/>
		<path id="Vector" d="M10 10.1562L10 14.5312" stroke="currentColor" stroke-opacity="1.000000" stroke-width="1.500000" stroke-linejoin="round" stroke-linecap="round"/>
		<path id="Vector" d="M13.125 8.59375L13.125 14.5312" stroke="currentColor" stroke-opacity="1.000000" stroke-width="1.500000" stroke-linejoin="round" stroke-linecap="round"/>
		<path id="Vector" d="M5.3125 5.46875L8.4375 5.46875" stroke="currentColor" stroke-opacity="1.000000" stroke-width="1.500000" stroke-linejoin="round" stroke-linecap="round"/>
	</g>
</svg>
