<svg width="20.000000" height="19.931152" viewBox="0 0 20 19.9312" fill="none" xmlns="http://www.w3.org/2000/svg" xmlns:xlink="http://www.w3.org/1999/xlink">
	<desc>
			Created with Pixso.
	</desc>
	<defs/>
	<path id="Vector" d="M8.48633 0C3.7998 0 0 3.7998 0 8.48682C0 13.1738 3.7998 16.9731 8.48633 16.9731C13.1738 16.9731 16.9736 13.1738 16.9736 8.48682C16.9736 3.7998 13.1738 0 8.48633 0ZM19.6504 19.5664C19.1777 20.0469 18.4014 20.0537 17.9209 19.5815L14.5283 16.248C15.1738 15.7451 15.7549 15.1631 16.2568 14.5171L19.6348 17.8369C20.1152 18.3091 20.1221 19.0859 19.6504 19.5664ZM8.48633 2.36279C11.8682 2.36279 14.6104 5.10449 14.6104 8.48633C14.6104 11.8687 11.8682 14.6104 8.48633 14.6104C5.10449 14.6104 2.36328 11.8687 2.36328 8.48633C2.36328 5.10449 5.10449 2.36279 8.48633 2.36279Z" fill="currentColor" fill-opacity="1.000000" fill-rule="evenodd"/>
</svg>
