<svg width="14.000000" height="16.000000" viewBox="0 0 14 16" fill="none" xmlns="http://www.w3.org/2000/svg" xmlns:xlink="http://www.w3.org/1999/xlink">
	<desc>
			Created with Pixso.
	</desc>
	<defs/>
	<path id="Vector" d="M8.80273 16L2.59863 16C1.16602 16 0 14.8789 0 13.5L0 5.03125C0 3.65234 1.16602 2.53125 2.59863 2.53125L8.80273 2.53125C10.2354 2.53125 11.4014 3.65234 11.4014 5.03125L11.4014 13.5C11.4014 14.8789 10.2354 16 8.80273 16ZM2.59863 3.78125C1.88184 3.78125 1.29883 4.3418 1.29883 5.03125L1.29883 13.5C1.29883 14.1895 1.88184 14.75 2.59863 14.75L8.80273 14.75C9.51953 14.75 10.1025 14.1895 10.1025 13.5L10.1025 5.03125C10.1025 4.3418 9.51953 3.78125 8.80273 3.78125L2.59863 3.78125ZM14 11.9375L14 2.5C14 1.12109 12.834 0 11.4014 0L4.19043 0C3.83105 0 3.54102 0.279297 3.54102 0.625C3.54102 0.970703 3.83105 1.25 4.19043 1.25L11.4014 1.25C12.1182 1.25 12.7012 1.81055 12.7012 2.5L12.7012 11.9375C12.7012 12.2832 12.9912 12.5625 13.3506 12.5625C13.709 12.5625 14 12.2832 14 11.9375Z" fill="#1565D8" fill-opacity="1.000000" fill-rule="nonzero"/>
</svg>
