<svg width="20.000000" height="20.000000" viewBox="0 0 20 20" fill="none" xmlns="http://www.w3.org/2000/svg" xmlns:xlink="http://www.w3.org/1999/xlink">
	<desc>
			Created with Pixso.
	</desc>
	<defs>
		<clipPath id="clip112_4912">
			<rect id="external-link" width="20.000000" height="20.000000" fill="white" fill-opacity="0"/>
		</clipPath>
	</defs>
	<rect id="external-link" width="20.000000" height="20.000000" fill="#FFFFFF" fill-opacity="0"/>
	<g clip-path="url(#clip112_4912)">
		<path id="Vector" d="M15 10.8335L15 15.8335C15 16.2754 14.8242 16.6992 14.5117 17.0117C14.1992 17.3242 13.7754 17.5 13.333 17.5L4.16699 17.5C3.72461 17.5 3.30078 17.3242 2.98828 17.0117C2.67578 16.6992 2.5 16.2754 2.5 15.8335L2.5 6.6665C2.5 6.22461 2.67578 5.80078 2.98828 5.48828C3.30078 5.17578 3.72461 5 4.16699 5L9.16699 5" stroke="#1E2024" stroke-opacity="1.000000" stroke-width="1.500000" stroke-linejoin="round" stroke-linecap="round"/>
		<path id="Vector" d="M12.5 2.5L17.5 2.5L17.5 7.5" stroke="#1E2024" stroke-opacity="1.000000" stroke-width="1.500000" stroke-linejoin="round" stroke-linecap="round"/>
		<path id="Vector" d="M8.33398 11.6665L17.501 2.5" stroke="#1E2024" stroke-opacity="1.000000" stroke-width="1.500000" stroke-linejoin="round" stroke-linecap="round"/>
	</g>
</svg>
