<svg width="44" height="44" viewBox="0 0 44 44" fill="none" xmlns="http://www.w3.org/2000/svg">
<circle cx="22" cy="22" r="21.5" stroke="#0041A1"/>
<g clip-path="url(#clip0_112_808)">
<path d="M21.2581 31.2366C15.7953 23.3171 14.7812 22.5043 14.7812 19.5938C14.7812 15.6069 18.0132 12.375 22 12.375C25.9868 12.375 29.2188 15.6069 29.2188 19.5938C29.2188 22.5043 28.2047 23.3171 22.7419 31.2366C22.3834 31.7545 21.6166 31.7545 21.2581 31.2366ZM22 22.6016C23.6612 22.6016 25.0078 21.2549 25.0078 19.5938C25.0078 17.9326 23.6612 16.5859 22 16.5859C20.3388 16.5859 18.9922 17.9326 18.9922 19.5938C18.9922 21.2549 20.3388 22.6016 22 22.6016Z" fill="#0041A1"/>
</g>
<defs>
<clipPath id="clip0_112_808">
<rect width="19.25" height="19.25" fill="white" transform="translate(12.375 12.375)"/>
</clipPath>
</defs>
</svg>
