<svg width="20.000000" height="20.000000" viewBox="0 0 20 20" fill="none" xmlns="http://www.w3.org/2000/svg" xmlns:xlink="http://www.w3.org/1999/xlink">
	<desc>
			Created with Pixso.
	</desc>
	<defs>
		<clipPath id="clip24_260">
			<rect id="calendar-days" width="20.000000" height="20.000000" fill="white" fill-opacity="0"/>
		</clipPath>
	</defs>
	<rect id="calendar-days" width="20.000000" height="20.000000" fill="#FFFFFF" fill-opacity="0"/>
	<g clip-path="url(#clip24_260)">
		<path id="Vector" d="M15.8333 3.3335C16.7539 3.3335 17.5 4.07959 17.5 5L17.5 16.667C17.5 17.5874 16.7539 18.3335 15.8333 18.3335L4.16675 18.3335C3.24609 18.3335 2.5 17.5874 2.5 16.667L2.5 5C2.5 4.07959 3.24609 3.3335 4.16675 3.3335L15.8333 3.3335Z" stroke="#8E98A8" stroke-opacity="1.000000" stroke-width="1.500000" stroke-linejoin="round"/>
		<path id="Vector" d="M13.3333 1.6665L13.3333 5" stroke="#8E98A8" stroke-opacity="1.000000" stroke-width="1.500000" stroke-linejoin="round" stroke-linecap="round"/>
		<path id="Vector" d="M6.66675 1.6665L6.66675 5" stroke="#8E98A8" stroke-opacity="1.000000" stroke-width="1.500000" stroke-linejoin="round" stroke-linecap="round"/>
		<path id="Vector" d="M2.5 8.3335L17.5 8.3335" stroke="#8E98A8" stroke-opacity="1.000000" stroke-width="1.500000" stroke-linejoin="round" stroke-linecap="round"/>
		<path id="Vector" d="M6.66675 11.6665L6.67505 11.6665" stroke="#8E98A8" stroke-opacity="1.000000" stroke-width="1.500000" stroke-linejoin="round" stroke-linecap="round"/>
		<path id="Vector" d="M10 11.6665L10.0083 11.6665" stroke="#8E98A8" stroke-opacity="1.000000" stroke-width="1.500000" stroke-linejoin="round" stroke-linecap="round"/>
		<path id="Vector" d="M13.3333 11.6665L13.3416 11.6665" stroke="#8E98A8" stroke-opacity="1.000000" stroke-width="1.500000" stroke-linejoin="round" stroke-linecap="round"/>
		<path id="Vector" d="M6.66675 15L6.67505 15" stroke="#8E98A8" stroke-opacity="1.000000" stroke-width="1.500000" stroke-linejoin="round" stroke-linecap="round"/>
		<path id="Vector" d="M10 15L10.0083 15" stroke="#8E98A8" stroke-opacity="1.000000" stroke-width="1.500000" stroke-linejoin="round" stroke-linecap="round"/>
		<path id="Vector" d="M13.3333 15L13.3416 15" stroke="#8E98A8" stroke-opacity="1.000000" stroke-width="1.500000" stroke-linejoin="round" stroke-linecap="round"/>
	</g>
</svg>
