<svg width="24.000000" height="24.000000" viewBox="0 0 24 24" fill="none" xmlns="http://www.w3.org/2000/svg" xmlns:xlink="http://www.w3.org/1999/xlink">
	<g clip-path="url(#clip49_8717)">
		<path id="Vector" d="M20.7578 22.4116L3.24121 22.4116C1.30762 22.4116 0.0859375 20.3364 1.02539 18.6455L9.78125 2.89404C10.748 1.15381 13.2471 1.15381 14.2148 2.89014L22.9746 18.6455C23.9131 20.3364 22.6924 22.4116 20.7578 22.4116Z" fill="#DE9301" fill-opacity="1.000000" fill-rule="nonzero"/>
		<path id="Vector" d="M3.24219 20.9995C2.66113 20.9995 2.37109 20.6128 2.27344 20.4463C2.1748 20.2798 1.97754 19.8384 2.25977 19.3311L11.0156 3.57959C11.3066 3.05664 11.8008 3 12 3C12.1982 3 12.6914 3.05615 12.9814 3.57715L21.7412 19.3315C22.0225 19.8384 21.8252 20.2798 21.7275 20.4463C21.6299 20.6128 21.3389 20.9995 20.7588 20.9995L3.24219 20.9995Z" fill="#fff" fill-opacity="1.000000" fill-rule="nonzero"/>
		<path id="Vector" d="M13.2441 7.55615L12.7998 14.8232C12.7812 15.0986 12.5557 15.3135 12.2773 15.3135L11.7227 15.3135C11.4473 15.3135 11.2178 15.0986 11.2002 14.8232L10.7559 7.55615C10.7383 7.25586 10.9746 7.00195 11.2744 7.00195L12.7256 7.00195C13.0254 7.00195 13.2656 7.25586 13.2441 7.55615Z" fill="#DE9301" fill-opacity="1.000000" fill-rule="nonzero"/>
		<path id="Vector" d="M13.2217 17.7173C13.2217 18.3921 12.6748 18.9395 12 18.9395C11.3252 18.9395 10.7783 18.3921 10.7783 17.7173C10.7783 17.0425 11.3252 16.4956 12 16.4956C12.6748 16.4956 13.2217 17.0425 13.2217 17.7173Z" fill="#DE9301" fill-opacity="1.000000" fill-rule="evenodd"/>
	</g>
</svg>
