<svg width="11.000000" height="11.000000" viewBox="0 0 11 11" fill="none" xmlns="http://www.w3.org/2000/svg" xmlns:xlink="http://www.w3.org/1999/xlink">
	<desc>
			Created with Pixso.
	</desc>
	<defs/>
	<path id="Vector" d="M11 6.74512L11 11L8.63184 11L8.63184 7.00488C8.63184 6.01855 8.28711 5.34473 7.44824 5.34473C6.80762 5.34473 6.41211 5.81152 6.26465 6.22656C6.21484 6.38184 6.16602 6.58984 6.16602 6.84863L6.16602 11L3.79785 11C3.79785 11 3.84766 4.25488 3.79785 3.58008L6.16602 3.58008L6.16602 4.61816C6.46191 4.09863 7.05371 3.37305 8.28711 3.37305C9.81641 3.37305 11 4.46191 11 6.74512ZM1.33203 0C0.542969 0 0 0.570312 0 1.29688C0 2.02344 0.493164 2.59473 1.28223 2.59473C2.12109 2.59473 2.61426 2.02344 2.61426 1.29688C2.66406 0.518555 2.16992 0 1.33203 0ZM0.148438 11L2.51562 11L2.51562 3.58008L0.148438 3.58008L0.148438 11Z" fill="#FFFFFF" fill-opacity="1.000000" fill-rule="nonzero"/>
</svg>
