<svg width="160" height="46" viewBox="0 0 160 46" fill="none" xmlns="http://www.w3.org/2000/svg">
<g clip-path="url(#clip0_327_82)">
<path d="M73.0999 21.4017L79.3941 10.0168C79.6493 9.53778 79.8761 9.05871 80.0746 8.66419C80.2731 8.26966 80.4432 7.87514 80.5566 7.50879C81.0102 6.18432 80.9819 5.19801 80.4715 4.60622C79.9328 3.98625 78.7137 3.67627 76.8424 3.67627H51.9774L48.0648 10.6368H68.8187C69.4708 10.6368 69.8961 10.7214 70.1513 10.9186C70.4064 11.0877 70.6616 11.454 70.3781 12.2149C70.3214 12.384 70.1796 12.694 69.9528 13.0885L66.5505 19.2318C66.0118 20.1899 65.5298 20.8099 65.0762 21.1481C64.5942 21.5144 63.9421 21.6835 63.1199 21.6835H50.0211L53.8487 14.6948H45.7683L30.2595 42.5088H38.3399L46.4487 28.1368H62.808C65.2747 28.1368 67.2877 27.6014 68.8187 26.5023C70.3781 25.3751 71.8241 23.6843 73.0999 21.4017Z" fill="#505050"/>
<path d="M94.3646 3.67662C91.9546 3.67662 89.9416 4.21204 88.3822 5.31108C86.8228 6.41011 85.3485 8.10093 84.0727 10.3835L69.6697 36.1685C69.3861 36.6758 69.1593 37.1267 68.9609 37.5212C68.7907 37.9157 68.6206 38.3102 68.5072 38.7048C68.0536 40.0292 68.0819 41.0155 68.5923 41.6073C69.131 42.2273 70.3501 42.5373 72.2497 42.5373H98.3622L102.417 35.2949H81.124C80.2451 35.2949 79.7064 35.1822 79.4229 34.9004C79.1961 34.7032 78.9976 34.2804 79.2244 33.5759C79.2811 33.4069 79.3378 33.2378 79.4229 33.0969C79.4796 32.956 79.593 32.7869 79.678 32.5896L90.5937 13.2016C91.1324 12.2434 91.6427 11.6235 92.1247 11.2853C92.6351 10.9471 93.3722 10.7781 94.3929 10.7781H115.969L119.938 3.64844H94.3646V3.67662Z" fill="#505050"/>
<path d="M102.898 42.4807L110.412 29.0669H114.041L113.219 30.5323C113.729 30.025 114.239 29.6587 114.75 29.4051C115.26 29.1796 115.799 29.0669 116.366 29.0669H120.278L118.464 32.2795H113.077C112.822 32.2795 112.595 32.3358 112.425 32.4204C112.255 32.5049 112.085 32.7303 111.914 33.0121L106.641 42.4807H102.898Z" fill="#F26F00"/>
<path d="M115.062 42.4807L122.575 29.0669H126.318L118.804 42.4807H115.062Z" fill="#F26F00"/>
<path d="M121.725 42.4811L123.426 39.4094H132.697C132.98 39.4094 133.179 39.3531 133.321 39.2685C133.462 39.184 133.576 39.0149 133.718 38.7613L134.483 37.4368C134.512 37.3804 134.54 37.3241 134.597 37.2114C134.682 36.9859 134.54 36.8732 134.171 36.8732H126.941C126.346 36.8732 125.949 36.7605 125.751 36.5068C125.552 36.2814 125.524 35.9432 125.666 35.5487C125.722 35.3796 125.807 35.1824 125.949 34.9569L127.934 31.378C128.359 30.589 128.869 29.9972 129.465 29.6027C130.032 29.2363 130.797 29.0391 131.733 29.0391H142.875L141.203 32.0262H131.988C131.705 32.0262 131.478 32.0825 131.308 32.1953C131.138 32.308 130.996 32.4771 130.854 32.7589L130.23 33.8861C130.202 33.9424 130.145 34.027 130.117 34.1115C130.032 34.3933 130.145 34.5342 130.542 34.5342H137.857C138.481 34.5342 138.878 34.6469 139.076 34.9006C139.275 35.1542 139.303 35.4642 139.161 35.8869C139.133 35.9714 139.105 36.056 139.048 36.1405C139.02 36.225 138.963 36.3096 138.906 36.3941L136.808 40.1139C136.354 40.903 135.844 41.4948 135.277 41.8893C134.71 42.2838 133.944 42.4529 133.009 42.4529H121.725V42.4811Z" fill="#F26F00"/>
<path d="M125.212 24.3325L123.482 27.4605H127.225L128.983 24.3325H125.212Z" fill="#F26F00"/>
<path d="M148.461 24.3325L138.311 42.4806H142.081L152.232 24.3325H148.461Z" fill="#F26F00"/>
<path d="M154.783 34.4493H152.203L160 29.0669H155.889L146.589 35.6047L145.824 36.9574H151.154C151.466 36.9574 151.664 37.0137 151.749 37.0983C151.834 37.1828 151.863 37.3237 151.778 37.5492C151.749 37.6337 151.721 37.6901 151.693 37.7746C151.664 37.8592 151.608 37.9437 151.579 38.0282L149.113 42.4807H152.855L155.747 37.2955C155.946 36.9574 156.087 36.6192 156.201 36.3092C156.598 35.0693 156.144 34.4493 154.783 34.4493Z" fill="#F26F00"/>
<path d="M15.5448 30.025C22.7477 30.025 28.5868 24.2213 28.5868 17.0621C28.5868 9.90283 22.7477 4.09912 15.5448 4.09912C8.34182 4.09912 2.50269 9.90283 2.50269 17.0621C2.50269 24.2213 8.34182 30.025 15.5448 30.025Z" fill="url(#paint0_linear_327_82)"/>
<path d="M15.5451 3C7.71981 3 1.36888 9.31239 1.36888 17.062C1.36888 21.7117 3.66542 25.8542 7.18111 28.4187L1.28383 38.9863C0.688429 40.0571 1.05701 41.4098 2.1344 42.0016C2.47463 42.1988 2.84321 42.2834 3.21179 42.2834C4.00565 42.2834 4.74281 41.8607 5.1681 41.1562L11.1504 30.4758C12.5397 30.9267 13.9857 31.1521 15.5167 31.1521C23.3136 31.1521 29.6645 24.8398 29.6645 17.0902C29.6929 9.31239 23.3419 3 15.5451 3ZM15.5451 28.9259C8.96731 28.9259 3.63707 23.5998 3.63707 17.0902C3.63707 10.5805 8.99566 5.25443 15.5451 5.25443C22.0944 5.25443 27.453 10.5805 27.453 17.0902C27.453 23.5998 22.0944 28.9259 15.5451 28.9259Z" fill="#001C37"/>
<path opacity="0.5" d="M14.5243 9.22791C15.6301 10.9187 14.7228 13.455 12.4829 14.8922C10.2431 16.3294 7.52128 16.1321 6.41554 14.4413C5.3098 12.7505 6.21707 10.2142 8.45691 8.77703C10.6967 7.33983 13.4186 7.53709 14.5243 9.22791Z" fill="url(#paint1_linear_327_82)"/>
<path d="M19.0135 14.0274C20.2868 12.7618 20.2868 10.7099 19.0135 9.44431C17.7402 8.17874 15.6757 8.17874 14.4024 9.44431C13.1291 10.7099 13.1291 12.7618 14.4024 14.0274C15.6757 15.2929 17.7402 15.2929 19.0135 14.0274Z" fill="#E60004"/>
<path d="M10.8696 18.3743C11.0607 17.2069 10.2635 16.1065 9.0889 15.9165C7.91432 15.7266 6.8072 16.519 6.61608 17.6864C6.42495 18.8539 7.22221 19.9543 8.39679 20.1443C9.57137 20.3342 10.6785 19.5418 10.8696 18.3743Z" fill="#E60004"/>
<path d="M15.2898 17.6255C15.2898 18.1891 14.8362 18.6118 14.2975 18.6118C13.7305 18.6118 13.3052 18.1609 13.3052 17.6255C13.3052 17.0619 13.7588 16.6392 14.2975 16.6392C14.8362 16.6392 15.2898 17.09 15.2898 17.6255Z" fill="#E60004"/>
<path d="M19.1173 22.9231C19.4305 22.9231 19.6844 22.6708 19.6844 22.3595C19.6844 22.0482 19.4305 21.7959 19.1173 21.7959C18.8042 21.7959 18.5503 22.0482 18.5503 22.3595C18.5503 22.6708 18.8042 22.9231 19.1173 22.9231Z" fill="#E60004"/>
<path d="M23.7955 20.5571C23.7955 21.1207 23.3418 21.5434 22.8031 21.5434C22.2361 21.5434 21.8108 21.0925 21.8108 20.5571C21.8108 19.9935 22.2644 19.5708 22.8031 19.5708C23.3418 19.5708 23.7955 19.9935 23.7955 20.5571Z" fill="#E60004"/>
</g>
<defs>
<linearGradient id="paint0_linear_327_82" x1="13.6852" y1="28.3301" x2="17.3947" y2="5.43246" gradientUnits="userSpaceOnUse">
<stop stop-color="#006FDA"/>
<stop offset="1" stop-color="#004B94"/>
</linearGradient>
<linearGradient id="paint1_linear_327_82" x1="9.08778" y1="9.48202" x2="11.2711" y2="13.2477" gradientUnits="userSpaceOnUse">
<stop stop-color="#006FD8"/>
<stop offset="1" stop-color="#0064C3"/>
</linearGradient>
<clipPath id="clip0_327_82">
<rect width="160" height="46" fill="white"/>
</clipPath>
</defs>
</svg>
