<svg width="48.383301" height="48.386230" viewBox="0 0 48.3833 48.3862" fill="none" xmlns="http://www.w3.org/2000/svg" xmlns:xlink="http://www.w3.org/1999/xlink">
	<desc>
			Created with Pixso.
	</desc>
	<defs/>
	<path id="Vector" d="M41.7983 9.35449L34.0942 8.78467C33.6074 8.74902 33.3462 8.20312 33.6196 7.79932L34.8896 5.93555C26.6631 1.09229 16.0742 2.38623 9.22461 9.23584C2.17334 16.2871 1.02148 27.3037 6.38721 35.625C6.5415 35.8745 6.48242 36.207 6.23291 36.3848L4.6543 37.4531C4.39307 37.6313 4.03711 37.5601 3.85889 37.2988C-2.30225 27.7783 -0.984375 15.1714 7.08789 7.09912C14.9702 -0.783203 27.1616 -2.24316 36.5991 3.43115L37.9761 1.41309C38.249 1.00928 38.8545 1.05664 39.0684 1.49609L42.416 8.45264C42.6294 8.8916 42.2852 9.39014 41.7983 9.35449Z" fill="#D1D6DC" fill-opacity="1.000000" fill-rule="nonzero"/>
	<path id="Vector" d="M41.2881 41.2993C36.6108 45.9766 30.4141 48.3862 24.1699 48.3862C19.9082 48.3862 15.6348 47.2705 11.8003 44.9673L10.4233 46.9854C10.1504 47.3892 9.54492 47.3418 9.33105 46.9023L5.97168 39.9458C5.77002 39.5068 6.10205 39.0083 6.58887 39.0439L14.2935 39.6138C14.7798 39.6494 15.0527 40.1953 14.7798 40.5991L13.5098 42.4629C21.7246 47.2939 32.3018 46.0005 39.1509 39.1626C46.2026 32.1113 47.3657 21.0947 42.0122 12.7734C41.8457 12.5239 41.9053 12.1797 42.1665 12.0137L43.7334 10.9453C43.9946 10.7671 44.3623 10.8267 44.5288 11.0996C50.6895 20.6201 49.3604 33.2388 41.2881 41.2993Z" fill="#304056" fill-opacity="1.000000" fill-rule="nonzero"/>
	<path id="Vector" d="M39.1187 16.9727L35.7778 32.6934C35.5933 33.4932 35.1157 34.2173 34.4229 34.6636L25.9082 40.2378C24.8613 40.9302 23.5063 40.9302 22.4595 40.2378L13.96 34.6636C13.2671 34.2173 12.79 33.4932 12.6055 32.6934L9.26367 16.9727C8.95605 15.5405 9.67969 14.0776 11.0039 13.4619L22.8442 7.91846C23.6909 7.53369 24.6763 7.53369 25.5234 7.91846L37.3794 13.4619C38.7031 14.0776 39.4272 15.5405 39.1187 16.9727Z" fill="#0070DB" fill-opacity="1.000000" fill-rule="nonzero"/>
	<path id="Vector" d="M24.1841 37.5425C24.1118 37.5425 24.0029 37.5273 23.8926 37.4541L15.7754 32.1309C15.6533 32.0522 15.5649 31.9106 15.5283 31.751L12.3491 16.7935C12.2949 16.5396 12.4189 16.2837 12.6436 16.1792L23.9468 10.8877C24.0015 10.8628 24.0918 10.8438 24.1841 10.8438C24.2759 10.8438 24.3667 10.8633 24.4468 10.8994L35.7344 16.1768C35.9634 16.2837 36.0879 16.5396 36.0347 16.7871L32.8452 31.7925C32.8174 31.9111 32.7295 32.0522 32.6235 32.1201L24.4854 37.4478C24.3652 37.5273 24.2563 37.5425 24.1841 37.5425Z" fill="#D1D6DC" fill-opacity="1.000000" fill-rule="nonzero"/>
	<path id="Vector" d="M26.2139 29.6108L22.1699 29.6108C21.5361 29.6108 21.0708 29.019 21.2192 28.3994L22.3179 23.9536C21.6768 23.4116 21.2681 22.6084 21.2681 21.7065C21.2681 20.0859 22.5786 18.7759 24.1919 18.7759C25.8052 18.7759 27.1157 20.0859 27.1157 21.7065C27.1157 22.6084 26.707 23.4116 26.0659 23.9536L27.165 28.3994C27.313 29.019 26.8477 29.6108 26.2139 29.6108Z" fill="#304056" fill-opacity="1.000000" fill-rule="nonzero"/>
</svg>
