<svg width="14.000000" height="11.000000" viewBox="0 0 14 11" fill="none" xmlns="http://www.w3.org/2000/svg" xmlns:xlink="http://www.w3.org/1999/xlink">
	<desc>
			Created with Pixso.
	</desc>
	<defs/>
	<path id="Vector" d="M14 1.33984C13.5 1.55176 12.9287 1.69238 12.3574 1.7627C12.9287 1.41016 13.4287 0.845703 13.6426 0.211914C13.0713 0.564453 12.5 0.775391 11.7861 0.916992C11.2861 0.352539 10.5 0 9.71387 0C8.14258 0 6.85742 1.26953 6.85742 2.82031C6.85742 3.03223 6.85742 3.24316 6.92871 3.45508C4.57129 3.31445 2.42871 2.18555 1 0.493164C0.786133 0.916992 0.642578 1.41016 0.642578 1.9043C0.642578 2.89062 1.14258 3.7373 1.92871 4.23047C1.42871 4.23047 1 4.08984 0.642578 3.87793C0.642578 5.21777 1.64258 6.41699 2.92871 6.62793C2.71387 6.69824 2.42871 6.69824 2.14258 6.69824C1.92871 6.69824 1.78613 6.69824 1.57129 6.62793C1.92871 7.75684 3 8.60254 4.28613 8.60254C3.28613 9.37793 2.07129 9.80176 0.713867 9.80176C0.5 9.80176 0.286133 9.80176 0 9.73047C1.28613 10.5068 2.78613 11 4.42871 11C9.71387 11 12.5713 6.69824 12.5713 2.96191L12.5713 2.60938C13.1426 2.39746 13.6426 1.9043 14 1.33984Z" fill="#FFFFFF" fill-opacity="1.000000" fill-rule="nonzero"/>
</svg>
